# xmcd
# Copyright (C) 1995-1998 Ti Kan
#
# Track frame offsets:
#       150
#       14972
#       28387
#       47137
#       68867
#       81112
#       95882
#       137710
#
# Disc length: 1884 seconds
#
# Revision: 0
# Processed by: cddbd v1.4PL0 Copyright (c) Steve Scherf et al.
# Submitted via: CD-Transfer v1.0
#
DISCID=77075a08
DTITLE=Monsterbazz - Minnesota
DYEAR=2001
DGENRE=
TTITLE0=I'm In Love With Britney Spears
TTITLE1=Two Of A Kind
TTITLE2=Just Leave
TTITLE3=Head Rush
TTITLE4=Nothing Wrong
TTITLE5=Yours And Mine
TTITLE6=An Angel
TTITLE7=Sueña Con Los Angelitos
EXTD=
EXTT0=
EXTT1=
EXTT2=
EXTT3=
EXTT4=
EXTT5=
EXTT6=
EXTT7=
PLAYORDER=
